<svg xmlns="http://www.w3.org/2000/svg" version="1.0" viewBox="0 0 1280 1242">
    <path d="M601 34c-1.4.4-14.4.9-29 .9-14.6.1-33.2.6-41.5 1.1-8.2.6-20.4 1.3-27 1.6-15 .7-66.7 5-84 7-7.1.8-16.8 1.8-21.5 2.3-4.7.5-11.4 1.4-15 2-6.8 1.1-17.2 2.7-27.5 4.1-10.1 1.5-36.9 6.1-49 8.4-20.2 3.9-55.2 11.8-59.6 13.5-1.9.7-4.1-.1-11.4-4-14.6-7.7-30-12.9-50-16.5-14.4-2.7-53.7-2.7-64.5-.1-25.8 6.3-43.1 15.7-58.6 32-18 18.8-25.2 36.8-26.1 65.2-.8 25.4 4.5 49 18.3 80.2 20.9 47.5 56.7 97.2 114 158.3 24.5 26.1 37.4 38.7 77.2 75.3 2.9 2.6 5.2 5.4 5.2 6.2 0 .8-1.3 3.8-2.9 6.7-8.2 15.3-8.3 35.2-.3 50.3 3.9 7.2 15.5 18.4 22.7 21.9 19.1 9.3 40.6 6.8 57.3-6.4 5.9-4.7 13.3-15.4 15.9-22.8 1-2.8 2.1-5.2 2.6-5.2s2 2.8 3.5 6.3c4.6 10.8 23.7 48.8 30.5 60.3 48.2 83 111.8 143.8 191.4 182.6 10.1 5 18.3 9.4 18.3 9.8 0 .5-1 1.2-2.2 1.5-1.3.4-3.8 2.1-5.5 3.8-6.1 5.7-3.6 11.6 7 16.6 3.4 1.6 8.6 3.4 11.5 4.1 5.7 1.3 6.5 2.9 2.8 5.4-3.4 2.2-12.7 13.9-16.4 20.7-4.8 8.7-8.9 22.3-10.1 33.5-3.2 29.7 8.9 60.1 29.9 75.7 8.9 6.5 9.1 6.7 8.5 7.7-.3.5-2.7 1.2-5.3 1.5-17.5 2.4-31.2 9.7-31.2 16.5 0 5.3 8.5 11.1 20.6 14.1 2.5.7 4.8 1.8 5.1 2.6.4.9-1.7 3.8-5.3 7.4-12 12.2-31.4 22.8-50.4 27.4-24.1 5.8-51.4 14.6-68.5 22.1-1.6.7-7 2.9-12 5-9.8 4-41.6 19.4-50.5 24.4-39.7 22.5-61 41-66.3 57.9-2.4 7.7-2.5 37.2 0 39.6 6.3 6.4 56.7 21.3 93.3 27.6 14.4 2.5 24.4 4.1 34 5.4 5.8.8 15.5 2.1 21.5 3 80.7 11.2 154 13.5 228 6.9 30.4-2.6 43.2-4.2 80-9.9 5-.8 12.2-1.9 16-2.5 3.9-.5 9.3-1.5 12-2 2.8-.5 9.7-1.9 15.5-3 33.1-6.3 74.8-19 81.2-24.8 1.6-1.3 1.8-3.6 1.8-19.7 0-11.2-.4-19.5-1.2-21.6-5.6-16.4-28.7-36-68.8-58.2-18.5-10.3-36.2-18.4-69.5-31.9-7.9-3.3-42.2-14.3-50.5-16.3-26.7-6.3-41.9-13.8-56.5-27.6-8.3-8-9.3-10.4-4.2-11.4 9.7-2 20.2-8 21.3-12.4.4-1.3 0-3.7-.9-5.5-2.4-5.1-15.7-10.9-29.9-13.1-4-.6-5.2-3-2-4.2 5.1-1.9 17.4-13 22.5-20.3 10.5-14.9 15.2-30.6 15.2-50.5 0-14.1-1.6-22.8-6.2-34.5-3.5-8.8-12.2-21.8-18.4-27.4-5.8-5.2-5.9-7.1-.2-8.2 6-1.1 15.8-5.9 18.1-8.9 3.8-4.8 2.4-9.7-3.8-13.3-2.2-1.2-4-2.7-4-3.2 0-.6 3.9-2.8 8.8-5.1 38.7-17.9 69.4-37.8 102.7-66.4 21.8-18.8 46-45 65.4-71 7.7-10.2 29.6-43.4 31.4-47.5.4-.8 1.5-2.9 2.5-4.5 7.8-12.9 27.4-52 29.1-58.2 1.1-4 2.5-3 5.9 4.2 2.4 5 5.4 8.9 10.6 14.1 10.8 10.5 22.1 15.4 36.1 15.4 21.1-.1 38.2-10.8 47.9-29.9 3.3-6.3 4.6-12.6 4.6-22.1 0-11-1.6-17.9-5.9-25.5-1.7-3-3.1-6.1-3.1-6.8 0-.7 4.6-5.6 10.3-10.8 80.7-74 137.9-140.5 170.6-197.9 4.5-7.8 15.3-29.5 17.9-36 1.3-3 2.7-6.4 3.2-7.5 2.7-6.3 8.5-26.1 11.2-38 1.8-8.4 1.8-44.4-.1-50.5-7.4-24.1-12.7-33.5-27.2-47.6-14.8-14.4-31-22.8-55.9-29-10.7-2.7-50-2.7-64-.1-24.2 4.6-43.5 11.5-55.7 19.8-4.4 3.1-7.2 3.6-9 1.8-1.1-1.1-5.3-2-24.8-5.4-4.4-.8-12-2.1-17-3-22.3-4-61.7-10.2-82-12.9-43.2-5.8-62.5-8-98.5-11.6-10.4-1-32-2.7-45.5-3.5-3.8-.3-9.2-.7-12-1-2.7-.3-12.2-.7-21-1-8.8-.3-16.8-.9-17.9-1.2-1-.3-19.9-.9-42-1.5-22-.5-46.6-1.1-54.6-1.3-8-.2-15.6 0-17 .5zm-432.5 73.1c.4.5 0 1.8-.7 2.7-3.5 4.1-8.9 14.4-11.4 21.7-2.4 7.2-2.7 9.5-2.7 22-.1 15.7 1 20.8 7.1 33.2 8.8 17.9 25.6 31.8 45.7 37.8 8.4 2.6 29.6 2.6 38 .2 12.9-3.8 23.6-9.9 33.2-19 2.4-2.2 3.4-2.7 3.7-1.6.2.8.7 7.9 1 15.9.4 8 1.1 18.5 1.6 23.5.5 4.9 1.4 13.9 2 20 2.6 26.6 3.1 30.8 6.6 53.5 3.5 23.2 12 66.7 15.2 78.5.7 2.2 2.1 7.8 3.3 12.5 4.5 18.1 7.8 29.6 12.5 43.9 1.3 4.1 2.1 7.7 1.8 8-.3.3-2.8-.7-5.7-2.3-9.8-5.3-78.7-75.7-111.2-113.5-20.2-23.5-42.7-51.7-52.7-66.1-12.6-18.3-16.1-23.6-23.5-36-16.3-27.3-25.2-48.7-28.8-68.9-1.8-10.4-1.8-15.7-.1-23.6 4.8-22.3 20.9-34.8 53.6-41.6 10.5-2.1 10.7-2.1 11.5-.8zm955.6.4c20.2 3.7 37.5 11.7 45.7 21.1 9 10.1 12.5 24.2 10.3 41.1-.7 5.4-1.9 11.8-2.7 14.3-3.8 12.2-4.7 14.7-5.9 17.5-.8 1.6-2.1 4.8-3 7-4.8 11.4-15.4 30.8-25.9 47-30 46.6-76.5 101.5-142 167.4-28 28.2-37.5 36.6-39.3 34.7-.5-.5 2.3-10.6 5.7-20.6 1.4-4.1 9.5-34.9 11.5-43.5.9-4.4 2.3-10.5 3-13.5 8.7-37.5 16.5-89.7 20.1-133.5.3-4.4.7-8.9.8-10 .1-1.1.6-8.4 1-16.3.5-7.9 1.3-14.2 1.8-14.2.6 0 2.9 1.7 5.3 3.7 6.4 5.7 14.5 10.2 24.2 13.6 8.1 2.8 9.9 3.1 22.3 3.1 15.4.1 20.1-1 33.8-7.8 12.6-6.2 24.9-18.2 30.9-30.1 6.4-12.7 8.3-20.4 8.3-34 0-6-.5-12.8-1.1-15-.5-2.2-1.4-5.6-1.9-7.6-1.1-4.4-7.1-16-10.5-20.5-2.6-3.4-3.2-5.4-1.6-5.4.5 0 4.6.7 9.2 1.5z"/>
    <style>
        path { fill: #000; }
        @media (prefers-color-scheme: dark) {
            path { fill: #FFF; }
        }
    </style>
</svg>
