<svg xmlns="http://www.w3.org/2000/svg" version="1.0" viewBox="0 0 950 1280">
    <path d="M0 640v640h950V0H0v640zm880 0v570H70V70h810v570z"/>
    <path d="M768 123.5c-.8.2-4.8.9-8.9 1.5-28.6 4.7-48.9 21.2-53.6 43.7-4.3 20.1.8 38.6 14.4 52.1 7.8 7.7 15.9 12.6 36.8 22 8.1 3.7 17.4 8.2 20.7 10 20.1 11.4 22 28.3 4.1 37.2l-7 3.5H760c-12 0-15.9-.4-22.3-2.3-9.1-2.6-21.4-8.6-28-13.6L705 274v44.9l7.8 2.9c20 7.7 48.7 9.9 74.3 5.6 17-2.8 29.3-8.6 39-18.3 11.1-11.2 15.5-23.8 14.6-42.1-.8-16.2-5.7-27.2-16.5-37.2-7.5-7-14.8-11.3-35.7-21-22.8-10.7-25.8-12.4-31.3-17.9-7.1-7.3-7.7-15.6-1.6-22.7 10.9-12.8 42.7-13.2 67.7-.9l8.7 4.3v-41.2l-5.5-1.8c-11.2-3.5-20.2-4.7-38.5-5.1-10.2-.2-19.2-.2-20 0zM117 226v100h43l-.1-52.8c-.1-29-.4-60.8-.8-70.7-.3-9.9-.6-18.1-.5-18.3.1-.2 2.6 3.7 5.6 8.5 3 4.8 23.8 36.8 46.2 71l40.9 62.3H297V126h-43l.1 59.7c0 32.9.4 64 .7 69.1.4 5 .5 9.2.2 9.2s-2.7-3.8-5.5-8.4c-2.7-4.5-22.8-35.6-44.5-68.9L165.5 126H117v100zM318 226v100h120v-36h-75v-46h66l-.2-18.3-.3-18.2-32.7-.3-32.8-.2v-44l35.1-.2 35.1-.3v-13c-.1-8.9.2-12.4.8-11 .9 1.8 7.5 26.7 39.2 148.2l10.3 39.3h52.2l2.6-9.8c20.6-76.9 32.1-121.6 33.6-130.2l1.7-10.5 1.2 9c.7 4.9 8.8 38.7 18.2 75 9.3 36.3 17 66.1 17 66.2 0 .2 11.3.2 25.2.1l25.1-.3 25.8-97.5c14.2-53.6 26.1-98.5 26.4-99.8l.5-2.2-22.7.2-22.8.3-9.2 44.5c-13.2 63.8-20.1 98.6-20.9 105.5l-.7 6-1.3-9c-.6-5-8.8-40.2-18.1-78.2L600.5 126h-48.3l-.6 2.4c-.3 1.4-8.9 32.8-19 69.8s-19 71.1-19.7 75.8l-1.3 8.5-.9-7.5c-1.1-9.1-6.4-35.7-20-100l-10.3-48.5-81.2-.3-81.2-.2v100zM111 425.2v35.3l360.5-.3L832 460v-70H111v35.2zM111 561v35h721v-70H111v35zM111 692.5V728h721v-71H111v35.5zM111 828v35h721v-70H111v35zM111 962.2v35.3l360.5-.3L832 997v-70H111v35.2zM111 1098v35h721v-70H111v35z"/>
    <style>
        path { fill: #000; }
        @media (prefers-color-scheme: dark) {
            path { fill: #FFF; }
        }
    </style>
</svg>