<?xml version="1.0" standalone="no"?>
<!DOCTYPE svg PUBLIC "-//W3C//DTD SVG 20010904//EN"
 "http://www.w3.org/TR/2001/REC-SVG-20010904/DTD/svg10.dtd">
<svg version="1.0" xmlns="http://www.w3.org/2000/svg"
 width="1280.000000pt" height="1250.000000pt" viewBox="0 0 1280.000000 1250.000000"
 preserveAspectRatio="xMidYMid meet">
<metadata>
Created by potrace 1.15, written by Peter Selinger 2001-2017
</metadata>
<g transform="translate(0.000000,1250.000000) scale(0.100000,-0.100000)"
fill="#000000" stroke="none">
<path d="M7888 12486 c-216 -62 -412 -240 -517 -468 -63 -137 -76 -195 -75
-343 1 -148 17 -210 80 -302 110 -160 377 -260 622 -232 202 23 333 104 402
251 119 251 16 748 -204 986 -96 103 -199 139 -308 108z"/>
<path d="M3494 12066 c-230 -53 -519 -274 -585 -447 -24 -61 -25 -168 -3 -251
48 -189 295 -632 410 -738 99 -91 194 -93 324 -7 57 39 278 260 354 354 232
291 275 620 112 865 -60 91 -155 164 -271 208 -77 29 -249 37 -341 16z"/>
<path d="M6080 11323 c-223 -12 -401 -71 -539 -177 -144 -111 -315 -323 -514
-636 -294 -462 -487 -839 -487 -950 0 -28 2 -30 39 -30 117 0 412 140 696 330
220 148 402 306 518 450 132 164 179 202 252 202 72 0 150 -50 335 -211 117
-101 204 -161 329 -225 336 -171 680 -206 744 -75 16 34 17 42 3 110 -58 280
-481 786 -881 1054 -170 114 -304 168 -403 163 -20 -1 -62 -3 -92 -5z"/>
<path d="M9349 11140 c-84 -44 -159 -160 -203 -313 -52 -178 -65 -291 -76
-657 -12 -421 -36 -567 -118 -724 -109 -209 -328 -337 -748 -435 -248 -58
-535 -105 -1044 -171 -651 -85 -982 -157 -1161 -252 -161 -85 -152 -172 26
-258 107 -52 190 -75 588 -170 186 -43 409 -100 495 -124 193 -56 282 -71 487
-86 338 -25 866 23 1342 121 618 128 1056 312 1170 491 154 245 75 1253 -152
1945 -72 219 -218 473 -326 567 -94 82 -202 107 -280 66z"/>
<path d="M2540 10480 c-129 -129 158 -765 625 -1385 283 -375 431 -532 1013
-1070 244 -226 298 -280 280 -282 -13 -2 -216 -16 -453 -33 -862 -61 -991 -79
-1102 -153 -116 -77 -141 -164 -153 -527 -11 -304 -32 -437 -105 -670 -130
-414 -342 -859 -708 -1485 -286 -490 -346 -594 -439 -760 -188 -337 -368 -691
-426 -840 -11 -27 -23 -70 -27 -95 -26 -170 -152 -493 -385 -995 -245 -527
-446 -1080 -525 -1445 -23 -109 -133 -724 -130 -728 5 -6 986 1051 1330 1433
751 833 1239 1439 1299 1610 54 156 135 256 495 616 312 311 649 614 869 781
155 117 280 170 364 154 57 -10 114 -60 219 -191 112 -141 158 -177 232 -183
67 -5 136 21 253 94 123 77 604 414 604 423 0 4 -119 221 -265 482 -146 261
-306 553 -354 649 -249 492 -294 766 -93 562 75 -77 156 -188 284 -390 47 -75
115 -182 150 -237 149 -237 317 -423 426 -473 50 -23 58 -24 81 -11 79 45 68
174 -44 504 -137 400 -114 589 115 966 205 337 256 518 189 668 -50 113 -168
183 -379 227 -69 14 -162 18 -492 23 l-406 6 255 275 c353 380 457 522 609
830 124 251 192 473 201 656 6 126 -3 167 -46 208 -82 79 -296 -10 -854 -357
-368 -228 -485 -220 -1042 71 -267 140 -497 288 -709 458 -156 125 -266 233
-370 364 -177 220 -322 314 -386 250z m2570 -3014 c205 -29 350 -77 451 -152
105 -77 218 -251 204 -313 -16 -73 -113 -124 -347 -185 -145 -38 -256 -49
-398 -43 -213 11 -336 53 -495 171 -236 176 -332 175 -530 -5 -101 -92 -219
-173 -275 -190 -33 -10 -57 -7 -177 21 -453 106 -705 248 -663 375 59 180 552
296 1435 339 171 8 694 -3 795 -18z m-1096 -1476 c40 -100 47 -562 12 -753
-32 -171 -88 -293 -146 -317 -54 -23 -133 26 -173 105 -60 123 -52 390 19 610
67 210 204 420 260 398 7 -2 19 -22 28 -43z"/>
<path d="M9898 7920 c-42 -26 -9 -78 207 -320 170 -191 236 -273 264 -325 52
-98 13 -132 -216 -189 -218 -54 -551 -86 -905 -86 -300 0 -509 -36 -667 -112
-83 -41 -90 -42 -181 -42 -149 0 -295 54 -455 169 -140 100 -215 188 -215 251
0 112 212 189 695 253 83 11 285 34 450 51 316 32 422 47 430 60 7 12 -33 19
-167 30 -348 27 -1271 40 -1468 20 -221 -22 -324 -66 -372 -159 -25 -48 -28
-63 -28 -155 0 -117 23 -225 75 -348 44 -104 73 -152 148 -245 l62 -77 0 -81
c0 -72 -4 -88 -37 -158 -72 -151 -197 -322 -427 -587 -182 -208 -338 -376
-946 -1010 -747 -781 -865 -907 -1200 -1290 -787 -900 -1213 -1514 -1649
-2380 -124 -244 -163 -335 -172 -391 -5 -32 -3 -39 19 -54 32 -20 95 -11 259
41 317 101 682 326 1033 639 346 309 523 437 677 490 122 42 513 315 1068 746
518 401 1133 814 1697 1137 221 127 1379 720 1388 710 1 -2 80 -124 175 -273
495 -774 1044 -1538 1729 -2405 676 -856 968 -1170 1332 -1431 159 -114 230
-134 273 -76 18 25 21 42 20 135 -1 252 -120 711 -580 2252 -372 1242 -604
1946 -832 2515 -218 546 -385 843 -524 931 -47 30 -62 53 -92 140 -55 157 -91
367 -130 754 -44 424 -91 589 -207 715 -66 72 -151 109 -319 139 -130 23 -193
28 -212 16z m-773 -1406 c57 -37 120 -172 178 -379 109 -390 153 -726 117
-899 -15 -74 -53 -119 -100 -119 -94 0 -227 262 -320 628 -56 218 -74 346 -74
515 0 130 2 149 21 186 39 74 122 105 178 68z m-995 -313 c32 -61 -27 -223
-220 -606 -254 -504 -342 -645 -400 -645 -28 0 -73 47 -120 125 -29 49 -35 70
-38 129 -16 311 330 847 639 991 66 31 124 33 139 6z"/>
<path d="M7073 2764 c-23 -8 -75 -33 -115 -56 -64 -36 -719 -459 -741 -478 -8
-7 660 -570 833 -702 269 -205 432 -279 519 -233 48 24 63 71 63 190 -1 164
-55 385 -198 813 -109 328 -165 437 -241 468 -41 17 -67 17 -120 -2z"/>
</g>
</svg>
