<svg xmlns="http://www.w3.org/2000/svg" version="1.0" viewBox="0 0 1280 824">
    <path d="M450 .6C370 5.7 312.4 17 251.5 39.5 122.3 87.3 33.4 170.5 8.6 267c-19.1 74.7 1.1 150.8 57.5 216.5 22.9 26.6 56.4 54.8 89.2 74.9l7.8 4.8-2.7 4.7c-5.3 9.3-19.4 29.8-26.7 38.9-25.8 32.1-56.7 61.8-108 103.7C11.2 722.4 3 729.8 1.6 732.3c-2.1 3.7-2.1 3.8-.2 5.2 2.8 2.1 15.7 1.9 29.1-.4 72.2-12.5 165.6-48.7 265.2-102.8l18.3-9.9 14.2 3.2c29 6.4 55.1 10.5 89.8 14.1 14 1.4 26.6 1.8 62.5 1.8 45.9 0 56.7-.6 88.5-4.5 151.4-19.1 278.4-84.4 345.4-177.8 22.9-31.8 36.9-64.4 43.7-101 2.6-13.8 3.7-47.9 2-61.9-8.7-72.2-50.4-138-121.1-190.9C761 49 659.6 13.4 540.5 2.5 524.7 1 463.1-.3 450 .6z"/>
    <path d="M1010.6 350.2c-7.3 59.7-28.5 109.3-67.8 158.6-11.3 14.1-38.4 41.7-52.3 53.3-50.2 42-109.1 73.9-178.3 96.9-11.1 3.7-20.5 6.9-20.8 7.2-.6.7 19.8 18.8 28.1 24.8 28.9 21.2 60.5 37.1 96.8 48.9 81.1 26.3 177.4 27.7 259.3 3.8l8.1-2.4 16.1 9.8c35.5 21.7 73.1 41 103.2 53.1 21.5 8.7 53.3 17.9 66.6 19.4 6.3.6 10.4-.5 10.4-2.9s-4.6-7.5-12.1-13.8c-22.6-18.7-31.1-26.4-44.1-39.8-16.4-16.9-25.8-29.3-32.8-43.6-4.6-9.4-9-23.1-9-28.1 0-1.5 2.6-4.2 9.3-9.5 5-4 14.4-12.5 20.7-18.8 42.7-42.8 60.1-94.1 49.5-145.5-11.1-53.5-53.5-102.5-118-136.2-36.7-19.2-82.6-33.5-127.6-39.8l-4.7-.7-.6 5.3z"/>
    <style>
        path { fill: #000; }
        @media (prefers-color-scheme: dark) {
            path { fill: #FFF; }
        }
    </style>
</svg>
