<?xml version="1.0" standalone="no"?>
<!DOCTYPE svg PUBLIC "-//W3C//DTD SVG 20010904//EN"
 "http://www.w3.org/TR/2001/REC-SVG-20010904/DTD/svg10.dtd">
<svg version="1.0" xmlns="http://www.w3.org/2000/svg"
 width="846.000000pt" height="1280.000000pt" viewBox="0 0 846.000000 1280.000000"
 preserveAspectRatio="xMidYMid meet">
<metadata>
Created by potrace 1.15, written by Peter Selinger 2001-2017
</metadata>
<g transform="translate(0.000000,1280.000000) scale(0.100000,-0.100000)"
fill="#000000" stroke="none">
<path d="M4980 12790 c-194 -36 -384 -170 -475 -333 -63 -115 -87 -205 -88
-332 -2 -134 11 -191 70 -315 39 -81 58 -108 132 -180 147 -146 302 -206 511
-198 358 15 632 289 648 649 6 133 -14 228 -68 337 -87 173 -232 295 -415 352
-78 24 -240 35 -315 20z m243 -280 c194 -60 318 -259 286 -459 -29 -182 -178
-330 -352 -349 -137 -16 -249 21 -346 113 -165 158 -173 413 -18 582 108 117
274 161 430 113z"/>
<path d="M4300 12483 c-475 -61 -808 -162 -1116 -338 -447 -256 -737 -540
-914 -894 -184 -368 -149 -828 101 -1324 103 -206 239 -387 420 -562 119 -115
192 -173 311 -247 233 -145 443 -208 688 -208 161 0 261 31 338 104 127 119
102 344 -63 564 -95 126 -224 218 -560 396 -278 148 -369 208 -476 317 -69 68
-96 104 -128 170 -93 189 -97 425 -10 649 82 213 281 446 587 688 110 87 527
380 746 525 93 61 199 159 185 170 -2 2 -51 -2 -109 -10z"/>
<path d="M5870 11014 c-187 -32 -298 -75 -444 -172 -181 -120 -345 -349 -401
-562 -23 -88 -31 -284 -15 -374 46 -255 194 -489 405 -638 88 -63 129 -83 233
-120 125 -43 211 -58 335 -58 170 0 316 36 470 114 239 122 409 336 493 621
36 122 39 299 7 421 -56 212 -130 343 -278 489 -129 128 -275 209 -460 255
-77 19 -289 34 -345 24z"/>
<path d="M6525 8224 c-74 -32 -164 -104 -190 -154 -37 -72 -23 -189 36 -301
42 -78 199 -269 290 -353 86 -79 254 -208 424 -326 66 -46 174 -124 240 -174
127 -97 315 -270 315 -291 0 -14 -110 -115 -210 -192 -181 -139 -572 -377
-1020 -620 -284 -154 -354 -187 -495 -232 -71 -22 -150 -53 -175 -68 l-45 -27
40 -9 c62 -13 494 -1 625 17 63 9 201 33 305 52 105 19 240 44 300 55 371 69
765 204 1021 350 232 133 397 334 455 557 43 163 1 318 -146 537 -289 431
-1036 1034 -1435 1160 -112 35 -275 44 -335 19z"/>
<path d="M3084 6666 c-198 -45 -349 -129 -564 -312 -271 -231 -510 -505 -917
-1051 -206 -276 -304 -426 -382 -584 -175 -352 -196 -568 -69 -705 105 -114
329 -157 506 -98 149 49 235 112 517 380 451 426 756 757 1009 1092 131 174
282 405 329 503 141 294 166 546 63 637 -18 15 -90 54 -161 86 -109 49 -139
58 -199 62 -40 2 -98 -2 -132 -10z"/>
<path d="M4211 5815 c-261 -57 -549 -245 -783 -511 -119 -136 -187 -222 -379
-484 -545 -742 -868 -1235 -2198 -3347 -516 -820 -596 -950 -738 -1212 -51
-93 -118 -249 -110 -257 2 -2 28 8 58 23 61 31 98 66 294 282 194 214 367 375
916 853 180 156 364 333 1165 1117 844 826 1126 1109 1326 1331 415 463 721
885 888 1225 129 263 169 389 170 541 0 131 -39 246 -112 330 -85 96 -319 147
-497 109z"/>
</g>
</svg>
