<svg xmlns="http://www.w3.org/2000/svg" version="1.0" viewBox="0 0 1072 1280">
    <path d="M937.5.6c-15.4 2.2-24.3 4.8-36.8 11-32.2 15.8-53.1 43.6-59.3 78.7-5.8 33.3 8.9 71.2 36.8 94.6 11.7 9.9 26.4 17.3 43.8 22.2 7.5 2.1 10.6 2.4 26 2.4 19 0 25.7-1.3 41.3-7.6 28.5-11.5 49.8-34.3 60.4-64.9 4.3-12.3 5.6-21.7 5-36.1-1-26.1-10.2-47.1-29.3-66.9C1010 18.1 992.2 7.9 970 2.4 964.4 1 942.9-.2 937.5.6zM594.5 189.7c-8.2.1-33.2.9-55.5 1.7-22.3.9-58.7 2-81 2.6-51.6 1.3-83.4 2.7-103 4.5-16.3 1.5-33 4.3-33 5.6 0 1.7 16.3 6.8 28 8.8 14 2.5 16.6 3 51 10.1 13.5 2.8 28.8 6 34 7 5.2 1 20.5 4.2 34 7s28.8 6 34 7c5.2 1 20.5 4.2 34 7s28.8 6 34 7c16.3 3.3 39.1 8 48 10 28.3 6.3 60.1 10 102.6 12.1 49.6 2.3 75.8-2 90.6-15 17.7-15.6 9.2-45.3-16.9-58.9-19.2-10-41.6-15-69.8-15.7-21.8-.6-110.2-1.1-131-.8zM1006 229.4c-3.6 1.2-9.3 3.7-12.7 5.4l-6.2 3.2-2.2 7.2c-8.5 28.3-13.3 55.5-19.9 111.3-3.5 29.5-5.5 44.3-7.6 56.4-.8 4.6-1.4 8.5-1.4 8.7 0 .2-2.1.4-4.7.4-9.9 0-22.6-2.1-34-5.6-24.3-7.5-28.4-8.5-57.6-14.5-16.4-3.3-35.3-7.5-42-9.4-12.9-3.6-42.1-10.6-52.2-12.5-3.3-.6-9.4-1-13.5-.8l-7.5.3 13.5 13.6c13.5 13.7 20.3 19.1 55.5 44.6 18.2 13.1 28.2 19.7 41 27.1 22.4 12.8 68.4 33.1 87 38.4 6.9 1.9 10.4 2.2 25 2.3 16.7 0 17.1-.1 21.5-2.7 6.9-4.1 12.4-9.2 21.7-20.2 27.7-33 48.4-77.3 57.1-122.6 3.7-19 4.6-28.3 4.6-46.5-.1-16.1-.3-19.2-2.7-28.8-3.3-13.1-7-22.3-13.1-32.1-5.6-8.9-17.2-20.7-23.2-23.5-6.2-3-17.7-2.8-26.4.3zM383 467.6c-1.4.3-49.1 1.6-158 4.4-86 2.2-137.7 4.2-159 6-6.3.6-18.7 1.5-27.4 2-17 1.2-26.3 2.7-34.2 5.8l-4.9 2L4 489c2.5.6 6.2 1.6 8.3 2.1 3.1.8 21 4.3 41.5 8 2.8.5 7.6 1.3 10.5 1.9 2.8.5 34.9 6.3 71.2 13 36.3 6.7 68.3 12.5 71 13 2.8.5 19.9 3.6 38 7 18.2 3.4 35.3 6.5 38 7 2.8.5 17.4 3.2 32.5 6 15.1 2.8 29.8 5.5 32.5 6 24.5 4.4 56.2 10.4 66 12.5 52.2 11.2 104.8 19 151.5 22.5 36 2.6 46.2 3.1 71.5 3.7 28.7.6 41.7-.2 58.2-3.7 26.1-5.5 49.1-17.8 66.7-35.8l7-7.1-1.1-8c-2.1-16-11.7-30.2-26.8-39.6-25.9-16.2-60-26.2-99.8-29.5-11.5-.9-253.6-1.3-257.7-.4zM823.7 556.4c-15.1 6.3-27.6 17.1-33.9 29.2-7.9 15.2-13.4 33.6-16.2 54.2-2.6 18.7-1.8 55.5 1.8 81.7 4.6 32.6 8 58.6 9.6 71.5 2.8 24.1 5.2 43.2 6.1 49.5.5 3.8 2.1 15.1 3.5 25 5.3 38.1 10.9 73.5 33.5 210.5 4.4 26.7 9.3 56.8 11 67 8.2 50.1 22.6 122.5 25.3 127.8.8 1.5 2.5 3.7 3.9 5l2.4 2.3.7-6.8c.3-3.7 1.1-14 1.6-22.8.6-8.8 1.5-22.1 2-29.5 1-13.5 2-30.5 4-63 .6-9.6 1.5-24.5 2-33s1.4-23.6 2-33.5c2.1-35.7 3-51.3 4-67.5 2.6-43.4 4.6-78.8 6-105.5.5-11 2.1-33.3 3.4-49.5 5.5-64.9 5.7-83.9 1.7-153-4-70.2-7.9-92.8-21.3-123.4-6.9-15.7-17-26-33.7-34.1-9.8-4.8-12.3-5.1-19.4-2.1z"/>
    <style>
        path { fill: #000; }
        @media (prefers-color-scheme: dark) {
            path { fill: #FFF; }
        }
  </style>
</svg>