<?xml version="1.0" standalone="no"?>
<!DOCTYPE svg PUBLIC "-//W3C//DTD SVG 20010904//EN"
 "http://www.w3.org/TR/2001/REC-SVG-20010904/DTD/svg10.dtd">
<svg version="1.0" xmlns="http://www.w3.org/2000/svg"
 width="1072.000000pt" height="1280.000000pt" viewBox="0 0 1072.000000 1280.000000"
 preserveAspectRatio="xMidYMid meet">
<metadata>
Created by potrace 1.15, written by Peter Selinger 2001-2017
</metadata>
<g transform="translate(0.000000,1280.000000) scale(0.100000,-0.100000)"
fill="#000000" stroke="none">
<path d="M9375 12794 c-154 -22 -243 -48 -368 -110 -322 -158 -531 -436 -593
-787 -58 -333 89 -712 368 -946 117 -99 264 -173 438 -222 75 -21 106 -24 260
-24 190 0 257 13 413 76 285 115 498 343 604 649 43 123 56 217 50 361 -10
261 -102 471 -293 669 -154 159 -332 261 -554 316 -56 14 -271 26 -325 18z"/>
<path d="M5945 10903 c-82 -1 -332 -9 -555 -17 -223 -9 -587 -20 -810 -26
-516 -13 -834 -27 -1030 -45 -163 -15 -330 -43 -330 -56 0 -17 163 -68 280
-88 140 -25 166 -30 510 -101 135 -28 288 -60 340 -70 52 -10 205 -42 340 -70
135 -28 288 -60 340 -70 52 -10 205 -42 340 -70 135 -28 288 -60 340 -70 163
-33 391 -80 480 -100 283 -63 601 -100 1026 -121 496 -23 758 20 906 150 177
156 92 453 -169 589 -192 100 -416 150 -698 157 -218 6 -1102 11 -1310 8z"/>
<path d="M10060 10506 c-36 -12 -93 -37 -127 -54 l-62 -32 -22 -72 c-85 -283
-133 -555 -199 -1113 -35 -295 -55 -443 -76 -564 -8 -46 -14 -85 -14 -87 0 -2
-21 -4 -47 -4 -99 0 -226 21 -340 56 -243 75 -284 85 -576 145 -164 33 -353
75 -420 94 -129 36 -421 106 -522 125 -33 6 -94 10 -135 8 l-75 -3 135 -136
c135 -137 203 -191 555 -446 182 -131 282 -197 410 -271 224 -128 684 -331
870 -384 69 -19 104 -22 250 -23 167 0 171 1 215 27 69 41 124 92 217 202 277
330 484 773 571 1226 37 190 46 283 46 465 -1 161 -3 192 -27 288 -33 131 -70
223 -131 321 -56 89 -172 207 -232 235 -62 30 -177 28 -264 -3z"/>
<path d="M3830 8124 c-14 -3 -491 -16 -1580 -44 -860 -22 -1377 -42 -1590 -60
-63 -6 -187 -15 -274 -20 -170 -12 -263 -27 -342 -58 l-49 -20 45 -12 c25 -6
62 -16 83 -21 31 -8 210 -43 415 -80 28 -5 76 -13 105 -19 28 -5 349 -63 712
-130 363 -67 683 -125 710 -130 28 -5 199 -36 380 -70 182 -34 353 -65 380
-70 28 -5 174 -32 325 -60 151 -28 298 -55 325 -60 245 -44 562 -104 660 -125
522 -112 1048 -190 1515 -225 360 -26 462 -31 715 -37 287 -6 417 2 582 37
261 55 491 178 667 358 l70 71 -11 80 c-21 160 -117 302 -268 396 -259 162
-600 262 -998 295 -115 9 -2536 13 -2577 4z"/>
<path d="M8237 7236 c-151 -63 -276 -171 -339 -292 -79 -152 -134 -336 -162
-542 -26 -187 -18 -555 18 -817 46 -326 80 -586 96 -715 28 -241 52 -432 61
-495 5 -38 21 -151 35 -250 53 -381 109 -735 335 -2105 44 -267 93 -568 110
-670 82 -501 226 -1225 253 -1278 8 -15 25 -37 39 -50 l24 -23 7 68 c3 37 11
140 16 228 6 88 15 221 20 295 10 135 20 305 40 630 6 96 15 245 20 330 5 85
14 236 20 335 21 357 30 513 40 675 26 434 46 788 60 1055 5 110 21 333 34
495 55 649 57 839 17 1530 -40 702 -79 928 -213 1234 -69 157 -170 260 -337
341 -98 48 -123 51 -194 21z"/>
</g>
</svg>
