<svg width="828" height="240" viewBox="0 0 828 240" fill="none" xmlns="http://www.w3.org/2000/svg">
<circle cx="211" cy="120" r="100" fill="url(#paint0_radial_204_48)"/>
<path d="M361.096 159.104C356.741 159.104 352.693 158.307 348.952 156.712C345.272 155.117 342.083 152.909 339.384 150.088C336.747 147.205 334.815 143.863 333.588 140.06L343.984 135.552C345.64 139.477 348.032 142.575 351.16 144.844C354.288 147.052 357.815 148.156 361.74 148.156C363.948 148.156 365.849 147.819 367.444 147.144C369.1 146.408 370.357 145.427 371.216 144.2C372.136 142.973 372.596 141.501 372.596 139.784C372.596 137.76 371.983 136.104 370.756 134.816C369.591 133.467 367.812 132.424 365.42 131.688L352.264 127.456C346.928 125.8 342.911 123.316 340.212 120.004C337.513 116.692 336.164 112.797 336.164 108.32C336.164 104.395 337.115 100.929 339.016 97.924C340.979 94.9187 343.677 92.588 347.112 90.932C350.608 89.2147 354.595 88.356 359.072 88.356C363.181 88.356 366.953 89.092 370.388 90.564C373.823 91.9747 376.767 93.968 379.22 96.544C381.735 99.0587 383.605 102.033 384.832 105.468L374.528 110.068C373.179 106.633 371.155 103.996 368.456 102.156C365.757 100.255 362.629 99.304 359.072 99.304C356.987 99.304 355.147 99.672 353.552 100.408C351.957 101.083 350.7 102.064 349.78 103.352C348.921 104.579 348.492 106.051 348.492 107.768C348.492 109.669 349.105 111.356 350.332 112.828C351.559 114.239 353.429 115.343 355.944 116.14L368.548 120.096C374.007 121.875 378.085 124.328 380.784 127.456C383.544 130.584 384.924 134.448 384.924 139.048C384.924 142.973 383.912 146.439 381.888 149.444C379.864 152.449 377.073 154.811 373.516 156.528C369.959 158.245 365.819 159.104 361.096 159.104ZM395.178 176.4V107.952H406.494V117.888L405.39 115.404C407.108 112.705 409.438 110.62 412.382 109.148C415.326 107.615 418.73 106.848 422.594 106.848C427.317 106.848 431.58 108.013 435.382 110.344C439.185 112.675 442.19 115.803 444.398 119.728C446.668 123.653 447.802 128.069 447.802 132.976C447.802 137.821 446.698 142.237 444.49 146.224C442.282 150.211 439.277 153.369 435.474 155.7C431.672 157.969 427.348 159.104 422.502 159.104C418.884 159.104 415.541 158.399 412.474 156.988C409.469 155.516 407.077 153.431 405.298 150.732L407.23 148.34V176.4H395.178ZM421.122 148.064C423.882 148.064 426.336 147.42 428.482 146.132C430.629 144.844 432.285 143.065 433.45 140.796C434.677 138.527 435.29 135.92 435.29 132.976C435.29 130.032 434.677 127.456 433.45 125.248C432.285 122.979 430.629 121.2 428.482 119.912C426.336 118.563 423.882 117.888 421.122 117.888C418.485 117.888 416.093 118.532 413.946 119.82C411.861 121.108 410.205 122.917 408.978 125.248C407.813 127.517 407.23 130.093 407.23 132.976C407.23 135.92 407.813 138.527 408.978 140.796C410.205 143.065 411.861 144.844 413.946 146.132C416.093 147.42 418.485 148.064 421.122 148.064ZM481.463 159.104C476.556 159.104 472.079 157.969 468.031 155.7C464.044 153.431 460.855 150.333 458.463 146.408C456.132 142.483 454.967 138.005 454.967 132.976C454.967 127.947 456.132 123.469 458.463 119.544C460.855 115.619 464.044 112.521 468.031 110.252C472.018 107.983 476.495 106.848 481.463 106.848C486.37 106.848 490.816 107.983 494.803 110.252C498.79 112.521 501.948 115.619 504.279 119.544C506.671 123.408 507.867 127.885 507.867 132.976C507.867 138.005 506.671 142.483 504.279 146.408C501.887 150.333 498.698 153.431 494.711 155.7C490.724 157.969 486.308 159.104 481.463 159.104ZM481.463 148.064C484.162 148.064 486.523 147.42 488.547 146.132C490.632 144.844 492.258 143.065 493.423 140.796C494.65 138.465 495.263 135.859 495.263 132.976C495.263 130.032 494.65 127.456 493.423 125.248C492.258 122.979 490.632 121.2 488.547 119.912C486.523 118.563 484.162 117.888 481.463 117.888C478.703 117.888 476.28 118.563 474.195 119.912C472.11 121.2 470.454 122.979 469.227 125.248C468.062 127.456 467.479 130.032 467.479 132.976C467.479 135.859 468.062 138.465 469.227 140.796C470.454 143.065 472.11 144.844 474.195 146.132C476.28 147.42 478.703 148.064 481.463 148.064ZM517.007 158V107.952H528.323V119.084L527.403 117.428C528.568 113.687 530.377 111.08 532.831 109.608C535.345 108.136 538.351 107.4 541.847 107.4H544.791V118.072H540.467C537.032 118.072 534.272 119.145 532.187 121.292C530.101 123.377 529.059 126.321 529.059 130.124V158H517.007ZM575.58 158.552C569.938 158.552 565.552 157.019 562.424 153.952C559.358 150.824 557.824 146.439 557.824 140.796V118.716H549.176V107.952H550.096C552.55 107.952 554.451 107.308 555.8 106.02C557.15 104.732 557.824 102.861 557.824 100.408V96.544H569.876V107.952H581.376V118.716H569.876V140.152C569.876 141.808 570.152 143.219 570.704 144.384C571.318 145.549 572.238 146.439 573.464 147.052C574.752 147.665 576.378 147.972 578.34 147.972C578.77 147.972 579.26 147.941 579.812 147.88C580.426 147.819 581.008 147.757 581.56 147.696V158C580.702 158.123 579.72 158.245 578.616 158.368C577.512 158.491 576.5 158.552 575.58 158.552ZM590.768 158V107.952H602.82V158H590.768ZM590.768 102.34V89.46H602.82V102.34H590.768ZM619.744 158V118.716H610.912V107.952H619.744V106.296C619.744 102.493 620.511 99.2733 622.044 96.636C623.639 93.9373 625.847 91.8827 628.668 90.472C631.489 89.0613 634.832 88.356 638.696 88.356C639.432 88.356 640.229 88.4173 641.088 88.54C642.008 88.6013 642.775 88.6933 643.388 88.816V99.212C642.775 99.0893 642.192 99.028 641.64 99.028C641.149 98.9667 640.689 98.936 640.26 98.936C637.561 98.936 635.476 99.5493 634.004 100.776C632.532 101.941 631.796 103.781 631.796 106.296V107.952H642.928V118.716H631.796V158H619.744ZM657.395 178.332C656.046 178.332 654.727 178.209 653.439 177.964C652.151 177.78 650.986 177.443 649.943 176.952V166.832C650.74 167.016 651.691 167.2 652.795 167.384C653.96 167.568 655.034 167.66 656.015 167.66C658.775 167.66 660.768 167.016 661.995 165.728C663.283 164.44 664.418 162.753 665.399 160.668L668.711 152.94L668.527 163.06L646.723 107.952H659.695L674.967 148.616H670.367L685.547 107.952H698.611L676.807 163.06C675.519 166.311 673.955 169.071 672.115 171.34C670.275 173.609 668.128 175.327 665.675 176.492C663.283 177.719 660.523 178.332 657.395 178.332Z" fill="black"/>
<path d="M711.44 129.576C709.452 129.576 707.632 129.1 705.98 128.148C704.356 127.168 703.054 125.866 702.074 124.242C701.122 122.59 700.646 120.784 700.646 118.824C700.646 116.836 701.122 115.03 702.074 113.406C703.054 111.782 704.356 110.494 705.98 109.542C707.632 108.562 709.452 108.072 711.44 108.072C712.924 108.072 714.31 108.352 715.598 108.912C716.914 109.472 718.062 110.242 719.042 111.222C720.022 112.202 720.792 113.35 721.352 114.666C721.912 115.954 722.192 117.34 722.192 118.824C722.192 120.784 721.702 122.59 720.722 124.242C719.77 125.866 718.482 127.168 716.858 128.148C715.234 129.1 713.428 129.576 711.44 129.576ZM711.44 127.434C713.036 127.434 714.478 127.056 715.766 126.3C717.082 125.544 718.118 124.508 718.874 123.192C719.658 121.876 720.05 120.42 720.05 118.824C720.05 117.228 719.658 115.786 718.874 114.498C718.118 113.182 717.082 112.146 715.766 111.39C714.478 110.606 713.036 110.214 711.44 110.214C709.816 110.214 708.346 110.606 707.03 111.39C705.742 112.146 704.706 113.182 703.922 114.498C703.166 115.786 702.788 117.228 702.788 118.824C702.788 120.42 703.166 121.876 703.922 123.192C704.706 124.48 705.742 125.516 707.03 126.3C708.346 127.056 709.816 127.434 711.44 127.434ZM707.534 124.452V113.112H711.902C713.05 113.112 713.988 113.434 714.716 114.078C715.472 114.694 715.85 115.576 715.85 116.724C715.85 117.424 715.682 118.068 715.346 118.656C715.038 119.216 714.534 119.65 713.834 119.958L716.48 124.452H714.044L711.734 120.336H709.676V124.452H707.534ZM709.676 118.446H711.902C712.462 118.446 712.896 118.278 713.204 117.942C713.54 117.606 713.708 117.2 713.708 116.724C713.708 116.22 713.54 115.814 713.204 115.506C712.896 115.198 712.462 115.044 711.902 115.044H709.676V118.446Z" fill="black"/>
<g clip-path="url(#clip0_204_48)">
<path d="M225.799 58.1344C223.723 58.7296 221.84 60.4384 220.831 62.6272C220.225 63.9424 220.1 64.4992 220.11 65.92C220.12 67.3408 220.273 67.936 220.879 68.8192C221.936 70.3552 224.501 71.3152 226.856 71.0464C228.797 70.8256 230.056 70.048 230.719 68.6368C231.862 66.2272 230.873 61.456 228.758 59.1712C227.836 58.1824 226.846 57.8368 225.799 58.1344Z" fill="black"/>
<path d="M183.575 62.1664C181.365 62.6752 178.588 64.7968 177.954 66.4576C177.723 67.0432 177.713 68.0704 177.925 68.8672C178.386 70.6816 180.76 74.9344 181.865 75.952C182.816 76.8256 183.729 76.8448 184.978 76.0192C185.526 75.6448 187.65 73.5232 188.38 72.6208C190.609 69.8272 191.022 66.6688 189.456 64.3168C188.88 63.4432 187.967 62.7424 186.852 62.32C186.112 62.0416 184.459 61.9648 183.575 62.1664Z" fill="black"/>
<path d="M208.425 69.2992C206.282 69.4144 204.572 69.9808 203.246 70.9984C201.862 72.064 200.219 74.0992 198.306 77.104C195.481 81.5392 193.627 85.1584 193.627 86.224C193.627 86.4928 193.646 86.512 194.001 86.512C195.126 86.512 197.96 85.168 200.689 83.344C202.804 81.9232 204.552 80.4064 205.667 79.024C206.936 77.4496 207.387 77.0848 208.089 77.0848C208.781 77.0848 209.53 77.5648 211.308 79.1104C212.432 80.08 213.268 80.656 214.469 81.2704C217.698 82.912 221.004 83.248 221.619 81.9904C221.772 81.664 221.782 81.5872 221.648 80.9344C221.09 78.2464 217.025 73.3888 213.182 70.816C211.548 69.7216 210.26 69.2032 209.309 69.2512C209.117 69.2608 208.713 69.28 208.425 69.2992Z" fill="black"/>
<path d="M239.838 71.056C239.031 71.4784 238.31 72.592 237.887 74.0608C237.388 75.7696 237.263 76.8544 237.157 80.368C237.042 84.4096 236.811 85.8112 236.023 87.3184C234.976 89.3248 232.871 90.5536 228.835 91.4944C226.452 92.0512 223.694 92.5024 218.803 93.136C212.547 93.952 209.367 94.6432 207.647 95.5552C206.1 96.3712 206.186 97.2064 207.896 98.032C208.925 98.5312 209.722 98.752 213.547 99.664C215.334 100.077 217.477 100.624 218.303 100.854C220.158 101.392 221.013 101.536 222.983 101.68C226.231 101.92 231.305 101.459 235.879 100.518C241.818 99.2896 246.026 97.5232 247.122 95.8048C248.602 93.4528 247.843 83.776 245.661 77.1328C244.969 75.0304 243.566 72.592 242.529 71.6896C241.625 70.9024 240.588 70.6624 239.838 71.056Z" fill="black"/>
<path d="M174.408 77.392C173.168 78.6304 175.926 84.736 180.414 90.688C183.133 94.288 184.555 95.7952 190.148 100.96C192.493 103.13 193.012 103.648 192.839 103.667C192.714 103.686 190.763 103.821 188.486 103.984C180.202 104.57 178.963 104.742 177.896 105.453C176.781 106.192 176.541 107.027 176.426 110.512C176.32 113.43 176.118 114.707 175.417 116.944C174.168 120.918 172.13 125.19 168.613 131.2C165.865 135.904 165.289 136.902 164.395 138.496C162.588 141.731 160.859 145.13 160.301 146.56C160.196 146.819 160.08 147.232 160.042 147.472C159.792 149.104 158.581 152.205 156.342 157.024C153.988 162.083 152.056 167.392 151.297 170.896C151.076 171.942 150.019 177.846 150.048 177.885C150.096 177.942 159.523 167.795 162.829 164.128C170.045 156.131 174.735 150.314 175.311 148.672C175.83 147.174 176.608 146.214 180.068 142.758C183.066 139.773 186.304 136.864 188.418 135.261C189.908 134.138 191.109 133.629 191.916 133.782C192.464 133.878 193.012 134.358 194.021 135.616C195.097 136.97 195.539 137.315 196.25 137.373C196.894 137.421 197.557 137.171 198.681 136.47C199.863 135.731 204.485 132.496 204.485 132.41C204.485 132.371 203.342 130.288 201.939 127.782C200.536 125.277 198.998 122.474 198.537 121.552C196.144 116.829 195.712 114.198 197.643 116.157C198.364 116.896 199.142 117.962 200.372 119.901C200.824 120.621 201.477 121.648 201.814 122.176C203.246 124.451 204.86 126.237 205.907 126.717C206.388 126.938 206.465 126.947 206.686 126.822C207.445 126.39 207.339 125.152 206.263 121.984C204.946 118.144 205.167 116.33 207.368 112.71C209.338 109.475 209.828 107.738 209.184 106.298C208.704 105.213 207.57 104.541 205.542 104.118C204.879 103.984 203.985 103.946 200.814 103.898L196.913 103.84L199.363 101.2C202.755 97.552 203.755 96.1888 205.215 93.232C206.407 90.8224 207.06 88.6912 207.147 86.9344C207.205 85.7248 207.118 85.3312 206.705 84.9376C205.917 84.1792 203.861 85.0336 198.499 88.3648C194.962 90.5536 193.838 90.4768 188.486 87.6832C185.92 86.3392 183.71 84.9184 181.673 83.2864C180.173 82.0864 179.116 81.0496 178.117 79.792C176.416 77.68 175.023 76.7776 174.408 77.392ZM199.104 106.326C201.074 106.605 202.467 107.066 203.438 107.786C204.447 108.525 205.533 110.195 205.398 110.79C205.244 111.491 204.312 111.981 202.064 112.566C200.67 112.931 199.604 113.037 198.239 112.979C196.192 112.874 195.01 112.47 193.482 111.338C191.215 109.648 190.292 109.658 188.389 111.386C187.419 112.269 186.285 113.046 185.747 113.21C185.43 113.306 185.199 113.277 184.046 113.008C179.693 111.99 177.271 110.627 177.675 109.408C178.242 107.68 182.979 106.566 191.464 106.154C193.108 106.077 198.133 106.182 199.104 106.326ZM188.572 120.496C188.956 121.456 189.024 125.891 188.687 127.725C188.38 129.366 187.842 130.538 187.284 130.768C186.765 130.989 186.006 130.518 185.622 129.76C185.045 128.579 185.122 126.016 185.805 123.904C186.448 121.888 187.765 119.872 188.303 120.083C188.37 120.102 188.486 120.294 188.572 120.496Z" fill="black"/>
<path d="M245.114 101.968C244.71 102.218 245.027 102.717 247.103 105.04C248.736 106.874 249.371 107.661 249.64 108.16C250.139 109.101 249.765 109.427 247.564 109.974C245.469 110.493 242.269 110.8 238.868 110.8C235.985 110.8 233.976 111.146 232.458 111.875C231.66 112.269 231.593 112.278 230.719 112.278C229.287 112.278 227.884 111.76 226.346 110.656C225.001 109.696 224.28 108.851 224.28 108.246C224.28 107.171 226.318 106.432 230.959 105.818C231.757 105.712 233.698 105.491 235.283 105.328C238.32 105.021 239.338 104.877 239.415 104.752C239.483 104.637 239.098 104.57 237.81 104.464C234.466 104.205 225.597 104.08 223.704 104.272C221.58 104.483 220.59 104.906 220.129 105.798C219.889 106.259 219.86 106.403 219.86 107.286C219.86 108.41 220.081 109.446 220.581 110.627C221.004 111.626 221.282 112.086 222.003 112.979L222.599 113.718V114.496C222.599 115.187 222.56 115.341 222.243 116.013C221.551 117.462 220.35 119.104 218.14 121.648C216.391 123.645 214.892 125.258 209.05 131.344C201.871 138.842 200.738 140.051 197.518 143.728C189.956 152.368 185.862 158.262 181.673 166.576C180.481 168.918 180.106 169.792 180.02 170.33C179.972 170.637 179.991 170.704 180.202 170.848C180.51 171.04 181.115 170.954 182.691 170.454C185.737 169.485 189.245 167.325 192.618 164.32C195.942 161.354 197.643 160.125 199.123 159.616C200.295 159.213 204.053 156.592 209.386 152.454C214.364 148.605 220.273 144.64 225.693 141.539C227.817 140.32 238.944 134.627 239.031 134.723C239.04 134.742 239.8 135.914 240.713 137.344C245.469 144.774 250.745 152.109 257.327 160.432C263.823 168.65 266.629 171.664 270.127 174.17C271.655 175.264 272.337 175.456 272.75 174.899C272.923 174.659 272.952 174.496 272.942 173.603C272.933 171.184 271.789 166.778 267.369 151.984C263.794 140.061 261.565 133.302 259.374 127.84C257.279 122.598 255.674 119.747 254.339 118.902C253.887 118.614 253.743 118.394 253.455 117.558C252.926 116.051 252.58 114.035 252.205 110.32C251.783 106.25 251.331 104.666 250.216 103.456C249.582 102.765 248.765 102.41 247.151 102.122C245.902 101.901 245.296 101.853 245.114 101.968ZM237.686 115.466C238.233 115.821 238.839 117.117 239.396 119.104C240.443 122.848 240.866 126.074 240.52 127.734C240.376 128.445 240.011 128.877 239.559 128.877C238.656 128.877 237.378 126.362 236.484 122.848C235.946 120.755 235.773 119.526 235.773 117.904C235.773 116.656 235.793 116.474 235.975 116.118C236.35 115.408 237.147 115.11 237.686 115.466ZM228.124 118.47C228.432 119.056 227.865 120.611 226.01 124.288C223.569 129.126 222.724 130.48 222.166 130.48C221.897 130.48 221.465 130.029 221.013 129.28C220.735 128.81 220.677 128.608 220.648 128.042C220.494 125.056 223.819 119.91 226.789 118.528C227.423 118.23 227.98 118.211 228.124 118.47Z" fill="black"/>
<path d="M217.967 151.466C217.746 151.542 217.246 151.782 216.862 152.003C216.247 152.349 209.953 156.41 209.741 156.592C209.665 156.659 216.084 162.064 217.746 163.331C220.331 165.299 221.897 166.01 222.733 165.568C223.195 165.338 223.339 164.886 223.339 163.744C223.329 162.17 222.81 160.048 221.436 155.939C220.389 152.79 219.851 151.744 219.12 151.446C218.726 151.283 218.476 151.283 217.967 151.466Z" fill="black"/>
</g>
<defs>
<radialGradient id="paint0_radial_204_48" cx="0" cy="0" r="1" gradientUnits="userSpaceOnUse" gradientTransform="translate(206.5 116.25) rotate(87.5164) scale(103.848)">
<stop stop-color="#1ED760"/>
<stop offset="1" stop-color="#1CBB55"/>
</radialGradient>
<clipPath id="clip0_204_48">
<rect width="123" height="120" fill="white" transform="translate(150 58)"/>
</clipPath>
</defs>
</svg>
