<svg xmlns="http://www.w3.org/2000/svg" version="1.0" viewBox="0 0 1000 1000">
  <g class="layer">
    <circle cx="500" cy="500" r="500" fill="#1dc458"/>
    <g stroke="#000">
      <path d="M569.59 201.78c-10.1 2.97-19.26 11.49-24.17 22.4-2.94 6.55-3.55 9.33-3.51 16.42.05 7.08.79 10.05 3.74 14.45 5.14 7.66 17.63 12.45 29.08 11.1 9.44-1.1 15.57-4.98 18.8-12.01 5.56-12.01.75-35.79-9.54-47.18-4.48-4.93-9.31-6.65-14.4-5.17v-.01zm-205.43 20.1c-10.75 2.53-24.26 13.11-27.35 21.39-1.12 2.92-1.17 8.04-.14 12.01 2.25 9.05 13.79 30.25 19.17 35.31 4.63 4.36 9.07 4.45 15.15.34 2.66-1.86 13-12.45 16.55-16.94 10.85-13.92 12.86-29.67 5.24-41.4-2.81-4.36-7.24-7.85-12.67-9.95-3.6-1.39-11.64-1.77-15.94-.77l-.01.01zm120.9 35.55c-10.42.58-18.75 3.4-25.2 8.47-6.73 5.32-14.73 15.46-24.03 30.44-13.74 22.11-22.77 40.15-22.77 45.47 0 1.34.1 1.44 1.82 1.44 5.47 0 19.26-6.7 32.54-15.79 10.29-7.08 18.8-14.64 24.22-21.53 6.17-7.85 8.37-9.66 11.78-9.66 3.37 0 7.01 2.39 15.66 10.1 5.47 4.84 9.54 7.71 15.38 10.77 15.71 8.19 31.79 9.86 34.78 3.59.75-1.63.79-2.01.14-5.27-2.71-13.4-22.49-37.62-41.19-50.44-7.95-5.46-14.21-8.04-18.84-7.8-.94.05-2.9.14-4.3.24v-.01l.01-.02zm152.83 8.76c-3.93 2.1-7.43 7.66-9.49 14.98-2.43 8.52-3.04 13.92-3.55 31.45-.56 20.15-1.69 27.14-5.52 34.65-5.09 10-15.33 16.13-34.97 20.81-11.59 2.77-25.01 5.03-48.81 8.19-30.44 4.07-45.91 7.51-54.28 12.06-7.53 4.07-7.11 8.23 1.22 12.35 5 2.49 8.88 3.59 27.49 8.14 8.7 2.05 19.12 4.79 23.14 5.93 9.03 2.68 13.18 3.4 22.77 4.12 15.81 1.2 40.48-1.1 62.74-5.79 28.89-6.12 49.37-14.93 54.7-23.5 7.2-11.73 3.51-59.97-7.11-93.08-3.37-10.48-10.19-22.64-15.24-27.14-4.4-3.92-9.44-5.12-13.09-3.16l-.02-.01h.02z"/>
      <path d="M319.55 297.78c-6.03 6.17 7.39 36.61 29.22 66.28 13.23 17.94 20.15 25.46 47.36 51.2 11.41 10.81 13.93 13.4 13.09 13.49-.61.1-10.1.77-21.18 1.58-40.3 2.92-46.33 3.78-51.52 7.32-5.42 3.68-6.6 7.85-7.16 25.22-.51 14.55-1.49 20.91-4.91 32.06-6.08 19.82-15.99 41.11-33.1 71.07-13.37 23.45-16.17 28.42-20.52 36.37-8.79 16.13-17.2 33.07-19.91 40.2-.51 1.29-1.08 3.35-1.26 4.55-1.22 8.14-7.11 23.6-18 47.62-11.46 25.22-20.85 51.68-24.54 69.15-1.08 5.22-6.22 34.65-6.08 34.84.23.29 46.1-50.29 62.18-68.58 35.11-39.86 57.93-68.86 60.73-77.05 2.53-7.47 6.31-12.25 23.14-29.48 14.59-14.88 30.34-29.38 40.63-37.38 7.24-5.6 13.09-8.14 17.02-7.37 2.66.48 5.33 2.87 10.24 9.14 5.24 6.75 7.39 8.47 10.85 8.76 3.13.24 6.36-1.01 11.83-4.5 5.75-3.68 28.24-19.82 28.24-20.25 0-.19-5.56-10.58-12.39-23.07s-14.31-26.47-16.55-31.06c-11.64-23.55-13.74-36.66-4.35-26.9 3.51 3.68 7.29 9 13.28 18.66 2.2 3.59 5.38 8.71 7.01 11.34 6.96 11.34 14.82 20.25 19.91 22.64 2.33 1.1 2.71 1.15 3.79.53 3.69-2.15 3.18-8.33-2.05-24.12-6.4-19.14-5.33-28.18 5.38-46.23 9.59-16.13 11.97-24.79 8.83-31.96-2.33-5.41-7.85-8.76-17.72-10.86-3.23-.67-7.57-.86-23-1.1l-18.98-.29 11.92-13.16c16.5-18.18 21.37-24.98 28.47-39.72 5.8-12.01 8.98-22.64 9.39-31.4.28-6.03-.14-7.99-2.15-9.95-3.84-3.78-13.84.48-39.92 17.08-17.2 10.91-22.67 10.53-48.72-3.4-12.48-6.7-23.23-13.78-33.15-21.92-7.29-5.98-12.44-11.15-17.3-17.42-8.27-10.53-15.05-15.03-18.04-11.97l-.02.02.01.02zm120.16 144.24c9.59 1.39 16.36 3.68 21.08 7.27 4.91 3.68 10.19 12.01 9.54 14.98-.75 3.49-5.28 5.93-16.22 8.86-6.78 1.82-11.97 2.34-18.61 2.05-9.96-.53-15.71-2.53-23.14-8.19-11.03-8.42-15.53-8.38-24.77.24-4.72 4.4-10.24 8.28-12.86 9.1-1.54.48-2.66.34-8.27-1.01-21.18-5.08-32.96-11.87-30.99-17.94 2.76-8.62 25.81-14.16 67.09-16.23 7.99-.38 32.45.14 37.17.86l-.02.01zm-51.24 70.64c1.87 4.79 2.2 26.9.56 36.03-1.49 8.19-4.12 14.02-6.83 15.17-2.53 1.1-6.22-1.25-8.09-5.03-2.81-5.88-2.43-18.66.89-29.19 3.13-10.05 9.54-20.1 12.15-19.05.33.1.89 1.06 1.31 2.05l.01.01v.01z"/>
      <path d="M663.55 420.3c-1.97 1.25-.42 3.73 9.68 15.32 7.95 9.14 11.03 13.06 12.34 15.55 2.43 4.69.61 6.31-10.1 9.05-10.19 2.58-25.76 4.12-42.31 4.12-14.02 0-23.8 1.73-31.19 5.36-3.88 1.96-4.21 2.01-8.47 2.01-6.96 0-13.79-2.58-21.27-8.09-6.55-4.79-10.05-9-10.05-12.01 0-5.36 9.91-9.05 32.49-12.11 3.88-.53 13.33-1.63 21.04-2.44 14.77-1.53 19.73-2.25 20.11-2.87.33-.58-1.54-.91-7.81-1.44-16.27-1.29-59.42-1.91-68.63-.96-10.33 1.06-15.15 3.16-17.39 7.61-1.17 2.29-1.31 3.01-1.31 7.42 0 5.6 1.08 10.77 3.51 16.66 2.05 4.98 3.41 7.27 6.92 11.73l2.9 3.68v3.88c0 3.45-.18 4.21-1.73 7.56-3.37 7.23-9.21 15.41-19.96 28.09-8.51 9.95-15.81 17.99-44.23 48.34-34.93 37.38-40.44 43.4-56.11 61.73-36.79 43.07-56.71 72.45-77.09 113.9-5.8 11.68-7.62 16.03-8.04 18.71-.23 1.53-.14 1.86.89 2.58 1.49.96 4.44.53 12.11-1.96 14.82-4.84 31.88-15.6 48.29-30.58 16.17-14.79 24.46-20.91 31.65-23.45 5.7-2.01 23.98-15.08 49.93-35.7 24.22-19.19 52.97-38.96 79.34-54.41 10.33-6.07 64.47-34.46 64.89-33.98.05.1 3.74 5.93 8.18 13.06 23.14 37.04 48.81 73.6 80.83 115.09 31.6 40.97 45.26 55.99 62.28 68.49 7.43 5.46 10.75 6.41 12.77 3.64.84-1.2.98-2.01.94-6.46-.05-12.06-5.61-34.03-27.12-107.77-17.39-59.44-28.24-93.13-38.9-120.36-10.19-26.13-18-40.34-24.5-44.55-2.2-1.44-2.9-2.53-4.3-6.7-2.57-7.51-4.25-17.56-6.08-36.08-2.05-20.29-4.25-28.18-9.68-34.22-3.09-3.45-7.06-5.22-14.92-6.65-6.08-1.1-9.03-1.34-9.91-.77h-.01l.02-.02zm-36.14 67.29c2.66 1.77 5.61 8.23 8.32 18.14 5.09 18.66 7.16 34.75 5.47 43.02-.7 3.54-2.48 5.69-4.68 5.69-4.4 0-10.62-12.54-14.96-30.05-2.61-10.43-3.46-16.56-3.46-24.64 0-6.22.1-7.13.98-8.9 1.82-3.54 5.7-5.03 8.32-3.25v.01l.01-.02zm-46.52 14.98c1.49 2.92-1.26 10.67-10.29 29-11.87 24.12-15.99 30.87-18.7 30.87-1.31 0-3.41-2.25-5.61-5.98-1.36-2.34-1.64-3.35-1.77-6.17-.75-14.88 15.43-40.53 29.88-47.42 3.09-1.49 5.8-1.58 6.5-.29v-.01h-.01z"/>
      <path d="M531.48 667.04c-1.08.38-3.51 1.58-5.38 2.68-2.99 1.73-33.62 21.97-34.64 22.88-.38.34 30.86 27.28 38.94 33.6 12.58 9.81 20.19 13.35 24.26 11.15 2.25-1.15 2.94-3.4 2.94-9.1-.05-7.85-2.57-18.42-9.26-38.91-5.09-15.7-7.71-20.91-11.26-22.4-1.92-.82-3.13-.82-5.61.1l.01.01v-.01z"/>
    </g>
  </g>
</svg>